<svg width="625" height="129" xmlns="http://www.w3.org/2000/svg" xmlns:xlink="http://www.w3.org/1999/xlink" xml:space="preserve" overflow="hidden"><defs><clipPath id="clip0"><rect x="116" y="176" width="625" height="129"/></clipPath><clipPath id="clip1"><rect x="116" y="176" width="625" height="129"/></clipPath><clipPath id="clip2"><rect x="117" y="176" width="624" height="129"/></clipPath><clipPath id="clip3"><rect x="117" y="176" width="624" height="129"/></clipPath><clipPath id="clip4"><rect x="117" y="176" width="624" height="129"/></clipPath></defs><g clip-path="url(#clip0)" transform="translate(-116 -176)"><g clip-path="url(#clip1)"><g clip-path="url(#clip2)"><g clip-path="url(#clip3)"><g clip-path="url(#clip4)"><path d="M41.0369 64.4806C41.0369 75.8126 31.8505 84.999 20.5184 84.999 9.18642 84.999-6.37651e-07 75.8126-6.37651e-07 64.4806-6.37651e-07 53.1485 9.18642 43.9621 20.5184 43.9621 31.8505 43.9621 41.0369 53.1485 41.0369 64.4806Z" fill="#FFFFFF" fill-rule="nonzero" fill-opacity="1" transform="matrix(1.0015 0 0 1 117 176.043)"/><path d="M84.9572 64.4806C84.9572 75.8126 75.7708 84.999 64.4388 84.999 53.1067 84.999 43.9203 75.8126 43.9203 64.4806 43.9203 53.1485 53.1067 43.9621 64.4388 43.9621 75.7708 43.9621 84.9572 53.1485 84.9572 64.4806Z" fill="#FFFFFF" fill-rule="nonzero" fill-opacity="1" transform="matrix(1.0015 0 0 1 117 176.043)"/><path d="M128.878 64.4806C128.878 75.8126 119.691 84.999 108.359 84.999 97.0271 84.999 87.8407 75.8126 87.8407 64.4806 87.8407 53.1485 97.0271 43.9621 108.359 43.9621 119.691 43.9621 128.878 53.1485 128.878 64.4806Z" fill="#FFFFFF" fill-rule="nonzero" fill-opacity="1" transform="matrix(1.0015 0 0 1 117 176.043)"/><path d="M128.878 108.396C128.878 119.728 119.691 128.914 108.359 128.914 97.0271 128.914 87.8407 119.728 87.8407 108.396 87.8407 97.0636 97.0271 87.8772 108.359 87.8772 119.691 87.8772 128.878 97.0636 128.878 108.396Z" fill="#FFFFFF" fill-rule="nonzero" fill-opacity="1" transform="matrix(1.0015 0 0 1 117 176.043)"/><path d="M108.181 41.0473 65.0813 41.0473C53.652 41.0473 44.3905 31.8798 44.3905 20.5655 44.3905 9.25628 53.652 0.0835782 65.0813 0.0835782L108.181 0.0835782C119.611 0.0835782 128.872 9.25106 128.872 20.5655 128.872 31.8746 119.611 41.0473 108.181 41.0473Z" fill="#FFFFFF" fill-rule="nonzero" fill-opacity="1" transform="matrix(1.0015 0 0 1 117 176.043)"/><path d="M63.838 128.893 20.7378 128.893C9.30852 128.893 0.0470127 119.726 0.0470127 108.411 0.0470127 97.1022 9.30852 87.9295 20.7378 87.9295L63.838 87.9295C75.2674 87.9295 84.5289 97.0969 84.5289 108.411 84.5289 119.721 75.2674 128.893 63.838 128.893Z" fill="#FFFFFF" fill-rule="nonzero" fill-opacity="1" transform="matrix(1.0015 0 0 1 117 176.043)"/><path d="M41.0369 20.5184C41.0369 31.8505 31.8505 41.0369 20.5184 41.0369 9.18642 41.0369-6.37651e-07 31.8505-6.37651e-07 20.5184-6.37651e-07 9.18642 9.18642-6.37651e-07 20.5184-6.37651e-07 31.8505-6.37651e-07 41.0369 9.18642 41.0369 20.5184Z" fill="#FFFFFF" fill-rule="nonzero" fill-opacity="1" transform="matrix(1.0015 0 0 1 117 176.043)"/><path d="M271.462 103.841 261.098 86.4146C260.242 84.9729 258.69 84.0901 257.013 84.0901L224.674 84.0901C221.022 84.0901 218.735 80.1462 220.547 76.9807 221.393 75.4972 222.966 74.5883 224.674 74.5883L245.688 74.5883C249.376 74.5883 251.659 70.5713 249.773 67.4006L236.422 45.0068C234.578 41.9144 230.091 41.9144 228.252 45.0121L193.306 103.841C192.449 105.282 190.898 106.165 189.221 106.165L187.769 106.165C184.07 106.165 181.788 102.133 183.694 98.9618L227.348 26.3741C228.706 24.1123 230.289 22.7542 232.781 22.7542 235.273 22.7542 236.74 24.1123 238.099 26.3741L281.752 98.9618C283.659 102.127 281.376 106.165 277.678 106.165L275.547 106.165C273.87 106.165 272.319 105.282 271.462 103.841Z" fill="#FFFFFF" fill-rule="nonzero" fill-opacity="1" transform="matrix(1.0015 0 0 1 117 176.043)"/><path d="M317.493 105.596C294.859 105.596 278.221 87.4854 278.221 63.6082 278.221 39.731 294.859 23.3183 317.493 23.3183L356.539 23.3183C359.167 23.3183 361.293 25.4443 361.293 28.0718L361.293 29.5449C361.293 32.1724 359.167 34.2984 356.539 34.2984L317.493 34.2984C301.195 34.2984 289.196 46.5217 289.196 64.1776 289.196 81.8335 301.08 94.6209 317.493 94.6209L350.428 94.6209C353.055 94.6209 355.181 92.4949 355.181 89.8674L355.181 73.5697C355.181 70.9422 353.055 68.8162 350.428 68.8162L320.324 68.8162C317.696 68.8162 315.57 66.6902 315.57 64.0627L315.57 63.3836C315.57 60.7561 317.696 58.6301 320.324 58.6301L361.523 58.6301C364.15 58.6301 366.276 60.7561 366.276 63.3836L366.276 100.848C366.276 103.475 364.15 105.601 361.523 105.601L317.498 105.601Z" fill="#FFFFFF" fill-rule="nonzero" fill-opacity="1" transform="matrix(1.0015 0 0 1 117 176.043)"/><path d="M380.014 101.114 380.014 28.3434C380.014 25.716 382.14 23.5899 384.768 23.5899L386.241 23.5899C388.868 23.5899 390.994 25.716 390.994 28.3434L390.994 101.119C390.994 103.747 388.868 105.873 386.241 105.873L384.768 105.873C382.14 105.873 380.014 103.747 380.014 101.119Z" fill="#FFFFFF" fill-rule="nonzero" fill-opacity="1" transform="matrix(1.0015 0 0 1 117 176.043)"/><path d="M471.282 105.867C448.648 105.867 432.01 87.7571 432.01 63.8798 432.01 40.0026 448.648 23.5899 471.282 23.5899L490.975 23.5899C514.288 23.5899 530.476 40.0026 530.476 63.8798 530.476 87.7571 513.953 105.867 490.975 105.867L471.282 105.867ZM490.975 94.8926C507.612 94.8926 519.496 81.8753 519.496 64.4492 519.496 47.0232 507.727 34.57 490.975 34.57L471.282 34.57C454.984 34.57 442.985 46.7933 442.985 64.4492 442.985 82.1051 454.869 94.8926 471.282 94.8926L490.975 94.8926Z" fill="#FFFFFF" fill-rule="nonzero" fill-opacity="1" transform="matrix(1.0015 0 0 1 117 176.043)"/><path d="M537.387 100.842 537.387 99.3692C537.387 96.7417 539.513 94.6157 542.14 94.6157L598.618 94.6157C607.786 94.6157 612.654 89.298 612.654 81.5984 612.654 73.11 607.676 68.8109 598.618 68.8109L560.136 68.8109C545.311 68.8109 536.143 58.9644 536.143 45.8374 536.143 32.7104 544.632 23.3131 560.365 23.3131L614.352 23.3131C616.979 23.3131 619.105 25.4391 619.105 28.0666L619.105 29.5397C619.105 32.1671 616.979 34.2932 614.352 34.2932L560.365 34.2932C552.217 34.2932 547.578 39.2713 547.578 46.5165 547.578 53.7617 552.446 58.6249 560.256 58.6249L598.623 58.6249C614.582 58.6249 623.07 66.5491 623.07 82.0529 623.07 95.5194 615.036 105.591 598.623 105.591L542.145 105.591C539.518 105.591 537.392 103.465 537.392 100.837Z" fill="#FFFFFF" fill-rule="nonzero" fill-opacity="1" transform="matrix(1.0015 0 0 1 117 176.043)"/></g></g></g></g></g></svg>